<?xml version="1.0" encoding="UTF-8"?><svg id="Layer_2" xmlns="http://www.w3.org/2000/svg" width="335.76" height="95.83" viewBox="0 0 335.76 95.83"><defs><style>.cls-1{fill:#fff;}</style></defs><g id="Layer_1-2"><g><path class="cls-1" d="M232.45,83.74h-15.42c-2.32-3.8-3.65-7.98-6.5-10.1-2.94-2.18-7.31-2.88-11.15-3.29-28.52-3.05-57.06-5.86-85.6-8.75-2.23-.23-4.49-.31-6.7-.67-7.23-1.16-11.8-6.63-11.35-13.45,.45-6.72,5.92-11.58,13.18-11.67,2.99-.04,5.98,0,9.27-.7-11.65-5.85-23.3-11.7-36.06-18.11,6.08-1.25,11.07-2.27,16.62-3.42-1.26,4.88,2.06,5.44,5.19,6.48,33.83,11.17,68.55,16.33,104.15,15.74,17.93-.3,35.47-3.34,52.9-7.16,3.76-.82,6.67-.18,9.41,2.76,4.64,4.97,9.63,9.62,14.31,14.61-13.38-9.04-27.12-10.47-40.43-.84-13.17,9.52-16.33,22.91-11.82,38.57Z"/><path class="cls-1" d="M14.53,72.04c-5.78,.49-9.22-2.87-10.27-7.85C2.37,55.32,1.14,46.31,0,37.31c-.39-3.07,11.31-13.48,14.56-13.49,7.86-.02,15.73-.31,23.57,.07,9.13,.45,17.79-1.82,26.6-3.44,1.39-.25,3.09-.35,4.29,.22,7.97,3.81,15.84,7.82,23.48,11.63-1.79,4-4.1,7.64-5.09,11.61-2.95,11.9,5.15,24.05,17.31,25.65,13.84,1.83,27.76,3.04,41.65,4.43,18.48,1.85,36.98,3.63,55.46,5.44,2.39,.23,4.41,.92,4.62,4.13H78.72c3.64-11.09,2.52-21.63-4.38-31.2-5.46-7.57-13.01-11.79-22.19-13.26-18.89-3.02-33.54,9.82-37.63,32.94Z"/><path class="cls-1" d="M107.88,.53c21.83,0,43.27-.18,64.71,.13,4.89,.07,9.98,1.22,14.6,2.91,17.05,6.23,33.94,12.89,50.89,19.39l-.13,1.04c-5.37,.63-10.73,1.42-16.12,1.85-37.87,3.03-74.9-1.25-111.07-13-2.26-.73-3.34-1.6-3.11-4.1,.23-2.6,.08-5.24,.11-7.87,0-.22,.15-.45,.12-.35Z"/><path class="cls-1" d="M47.82,47.82c13.22-.01,23.97,10.82,23.93,24.11-.04,13.09-10.7,23.82-23.77,23.9-13.23,.09-24.12-10.71-24.13-23.92-.01-13.29,10.72-24.08,23.97-24.09Zm-.03,18.02c-3.22,.01-5.91,2.68-5.95,5.9-.04,3.36,2.82,6.17,6.17,6.06,3.21-.11,5.82-2.87,5.76-6.09-.06-3.22-2.77-5.88-5.98-5.87Z"/><path class="cls-1" d="M287.37,71.68c.07,13.27-10.67,24.12-23.9,24.15-13.07,.03-23.88-10.64-24-23.67-.12-13.32,10.5-24.21,23.72-24.33,13.25-.12,24.12,10.61,24.18,23.86Zm-23.87-5.84c-3.21-.04-5.95,2.59-6.04,5.81-.09,3.36,2.72,6.21,6.08,6.15,3.21-.06,5.86-2.77,5.85-6,0-3.22-2.68-5.92-5.89-5.97Z"/><path class="cls-1" d="M289.44,50.26c5.12,5.25,10.33,10.41,15.32,15.79,1.96,2.11,4.04,2.9,6.86,2.83,6.07-.16,12.14-.05,19.09-.05-2.61,5.3-4.62,9.54-6.81,13.69-.35,.67-1.54,1.25-2.35,1.26-8.95,.09-17.91,.06-27.3,.06,4.06-12.14,2.19-23.16-4.8-33.57Z"/><path class="cls-1" d="M28.45,8.62c1.03,2.39,1.75,4.06,2.59,6H11.98v-5.67H.13V0H44.63V8.62H28.45Z"/><path class="cls-1" d="M285.67,34.05c18.34,5.11,36.37,10.63,50.09,25.74-8.52,0-16.15,.02-23.78-.04-.53,0-1.15-.47-1.56-.88-8.26-8.26-16.5-16.54-24.75-24.81Z"/></g></g></svg>