<?xml version="1.0" encoding="UTF-8"?><svg id="Layer_2" xmlns="http://www.w3.org/2000/svg" width="338.7" height="132.84" viewBox="0 0 338.7 132.84"><defs><style>.cls-1{fill:#fff;}</style></defs><g id="Layer_1-2"><g><path class="cls-1" d="M111.22,105.31c-2.69-21.42-15.84-34.7-34.67-35.18-19.74-.5-32.65,11.79-36.87,35.18-8.93,0-17.92,.5-26.83-.15-7.79-.57-12.39-5.49-12.6-13.33C-.15,76.72,.02,61.59,.11,46.47c.03-5.66,3.65-8.85,8.6-10.57,4.59-1.59,9.23-3.06,13.94-4.23,17.29-4.3,33.46-11.32,49.18-19.57C87.92,3.66,104.97-.7,123.29,.09c9.34,.41,18.72,.33,28.07,.02,17.86-.6,34.24,4.19,49.66,12.87,6.3,3.55,12.72,6.91,18.84,10.76,14.27,8.98,30.55,11.83,46.49,15.76,17.42,4.29,34.86,8.47,52.27,12.78,14.05,3.48,19.97,11.13,20.06,25.71,.02,3.63,.08,7.25-.02,10.88-.29,10.34-6.79,16.68-17.05,16.69-7.72,0-15.44,0-23.09,0-5.69-25.43-18.19-36.66-39.16-35.33-13.33,.85-30.99,11.56-32.39,35.08H111.22Zm69.61-59.77c.87,0,1.75,0,2.62,0,10.35-.01,20.71,.11,31.06-.17,1.93-.05,3.82-1.74,5.73-2.68-1.11-1.93-2.15-3.91-3.37-5.77-.37-.56-1.23-.82-1.88-1.19-6.06-3.47-12.16-6.87-18.16-10.43-15.11-8.94-31.28-13.42-48.92-12.23-4.71,.32-6.54,1.85-6.61,6.64-.09,6.37-.09,12.75,0,19.13,.07,4.86,1.99,6.66,6.98,6.68,10.85,.03,21.7,0,32.56,.01Zm-84.35,0c8.59,0,17.19,.04,25.78-.02,3.75-.03,5.99-1.82,6.06-5.16,.16-7.36,.13-14.73,.01-22.09-.05-3.04-1.87-4.99-4.91-5.07-13.47-.36-26.9-.87-38.91,7.25-5.44,3.67-11.65,6.18-17.24,9.66-4.31,2.68-6.04,7.09-4.66,10.49,1.74,4.28,5.53,4.95,9.59,4.95,8.09,0,16.19,0,24.28,0Zm216.57,24.14c-.03,5.61,4.43,10.54,9.5,10.49,3.95-.04,6.77-3.03,6.89-7.31,.15-5.33-4.52-10.68-9.4-10.76-4.02-.07-6.96,3.13-6.99,7.58Z"/><path class="cls-1" d="M262.71,78.3c14.98,.08,27.15,12.27,27.18,27.22,.03,15.07-12.37,27.41-27.46,27.32-15.18-.09-27.2-12.34-27.09-27.61,.11-14.98,12.34-27.01,27.37-26.93Zm10.06,27.43c.1-5.62-4.5-10.34-10.12-10.4-5.48-.05-10.06,4.38-10.2,9.87-.15,5.73,4.22,10.42,9.86,10.6,5.53,.17,10.36-4.47,10.46-10.07Z"/><path class="cls-1" d="M75.48,78.29c15.14-.02,27.4,12.28,27.33,27.41-.07,14.96-12.26,27.1-27.25,27.13-15.1,.03-27.4-12.31-27.33-27.43,.07-14.96,12.26-27.1,27.25-27.11Zm-10.12,27.16c-.05,5.65,4.56,10.35,10.14,10.36,5.57,.01,10.2-4.7,10.16-10.34-.04-5.51-4.45-10.01-9.95-10.14-5.61-.13-10.3,4.46-10.35,10.11Z"/></g></g></svg>