<?xml version="1.0" encoding="UTF-8"?><svg id="Layer_2" xmlns="http://www.w3.org/2000/svg" width="377.56" height="168.07" viewBox="0 0 377.56 168.07"><defs><style>.cls-1{fill:#fff;}</style></defs><g id="Layer_1-2"><g><path class="cls-1" d="M23.6,130.8c-7.8-1.57-15.56-3.12-23.42-4.7v-21.03c5.5,0,10.83-.1,16.16,.04,3.37,.09,4.71-1.31,4.67-4.68-.11-8.88-.13-17.75,0-26.63,.06-3.61-1.44-4.9-4.93-4.79-5.22,.17-10.44,.04-15.67,.04-1.04-3.19-.02-5.28,2.15-7.43,11.43-11.36,22.91-22.66,33.96-34.38,7.16-7.6,14.75-13.52,24.98-12.15,1.97-3.95,3.21-7.63,5.42-10.58C69.61,.9,73.84,0,78.31,0c36.18,.05,72.36,.03,108.53,.03,10.74,0,15.52,4.1,17.1,14.91,9.2,.45,19-1.52,27.82,6.09h-4.76c-53.02,0-106.04,.02-159.06-.05-2.52,0-4.07,.59-5.36,2.9-5.12,9.15-10.56,18.12-15.62,27.3-.79,1.44-.67,3.78-.15,5.44,.81,2.59,2.6,4.86,3.49,7.43,1.38,3.98,4.05,5.01,7.99,5,32.43-.06,64.87,.05,97.31,.06,31.94,.01,63.87,0,95.81-.12,3.03-.01,6.14-.73,9.08-1.57,3.7-1.05,7.41-2.3,10.88-3.93,7.46-3.51,14.99-3.98,23.15-2.72,20.44,3.16,40.99,5.63,61.49,8.45,10.4,1.43,17.78,7.84,20.38,17.85-3.9,0-7.69,0-11.47,0-7.3,0-11.32,3.1-11.52,8.85-.23,6.41,4.99,11.9,11.71,12.13,3.95,.13,7.92,.02,11.75,.02,4.03,13.11-10.04,27.62-23.14,23.67-2.2-30.49-26.65-42.84-44.71-41.63-19.44,1.3-38.45,16.36-39.61,41.68H107.98c-.52-13.93-5.94-25.67-17.4-34.18-7.79-5.78-16.65-8.39-26.31-8.08-16.69,.54-38,12.47-40.66,41.28ZM69.12,14.84H197.45c.83-5.28-4.37-8.93-9.32-8.91-36.53,.17-73.07,.09-109.6,.09-.62,0-1.25-.02-1.87,.03-4.7,.38-7.46,3.47-7.54,8.79Zm125.79,66.23v.02c-2.11,0-4.3-.32-6.31,.13-1.11,.25-2.64,1.79-2.66,2.78-.02,.99,1.53,2.8,2.51,2.88,4.07,.33,8.21,.33,12.28,.02,1.02-.08,2.82-2.03,2.65-2.72-.3-1.2-1.69-2.62-2.91-2.98-1.72-.51-3.69-.13-5.56-.13Z"/><path class="cls-1" d="M29.96,132.15c-.04-19.83,16.12-36.1,35.84-36.08,19.85,.02,35.92,16.05,36.01,35.92,.09,19.78-16.11,36.09-35.85,36.08-19.86-.01-35.96-16.09-36-35.92Zm35.98-15.06c-8.2-.04-14.99,6.71-15.01,14.93-.02,8.23,6.68,15,14.91,15.05,8.2,.05,15.01-6.72,15.01-14.93,0-8.26-6.68-15.01-14.91-15.05Z"/><path class="cls-1" d="M275.53,132.19c-.05-19.84,16.09-36.12,35.8-36.12,19.86,0,35.94,16.02,36.05,35.88,.11,19.79-16.08,36.12-35.81,36.12-19.86,0-35.99-16.06-36.04-35.88Zm35.96-15.1c-8.2-.03-14.98,6.73-14.99,14.96-.01,8.23,6.7,14.99,14.93,15.03,8.2,.04,15-6.74,14.99-14.96,0-8.26-6.7-15-14.93-15.03Z"/><path class="cls-1" d="M179.86,63.05V27.04h3.79c17.2,0,34.4-.07,51.59,.1,2,.02,4.41,.88,5.92,2.18,10.29,8.86,20.39,17.94,31.18,27.5-7.49,2.1-13.64,6.27-21.22,6.25-22.31-.06-44.62-.02-66.93-.02h-4.34Z"/><path class="cls-1" d="M173.53,27.3V62.85h-59.42V27.3h59.42Z"/><path class="cls-1" d="M107.65,27.04V62.87c-1.27,.06-2.47,.17-3.67,.17-14.59,.01-29.18-.05-43.77,.06-2.52,.02-3.76-.77-5.2-2.99-2.85-4.4-2.45-7.92,.41-12.17,4.03-5.99,7.32-12.48,11.11-18.64,.64-1.04,2.17-2.15,3.31-2.17,12.46-.15,24.92-.1,37.81-.1Z"/><path class="cls-1" d="M.27,75.23H14.77v23.53H.27v-23.53Z"/><path class="cls-1" d="M377.19,93.08v8.91c-4.32,0-8.58,.45-12.67-.21-1.84-.3-3.92-2.52-4.83-4.39-1.07-2.18,.15-4.23,2.97-4.28,4.71-.09,9.43-.02,14.52-.02Z"/><path class="cls-1" d="M66,141.05c-4.9,.07-9.06-4.03-9.07-8.95-.01-4.77,3.89-8.83,8.65-8.99,4.9-.17,9.13,3.84,9.25,8.76,.12,4.92-3.92,9.12-8.84,9.19Z"/><path class="cls-1" d="M302.5,131.98c.05-4.92,4.23-8.98,9.14-8.88,4.91,.1,8.93,4.33,8.77,9.24-.15,4.78-4.18,8.7-8.95,8.7-4.9,0-9.01-4.15-8.96-9.07Z"/></g></g></svg>